<?xml version="1.0" encoding="UTF-8" standalone="no"?>
<!DOCTYPE svg PUBLIC "-//W3C//DTD SVG 1.1//EN"
 "http://www.w3.org/Graphics/SVG/1.1/DTD/svg11.dtd">
<!-- Generated by graphviz version 2.43.0 (0)
 -->
<!-- Title: application_state_diagram Pages: 1 -->
<svg width="659pt" height="296pt"
 viewBox="0.00 0.00 659.18 296.00" xmlns="http://www.w3.org/2000/svg" xmlns:xlink="http://www.w3.org/1999/xlink">
<g id="graph0" class="graph" transform="scale(1 1) rotate(0) translate(4 292)">
<title>application_state_diagram</title>
<g id="a_graph0"><a xlink:href="index.html" xlink:title="My ALPS Blog" target="_parent">
<polygon fill="white" stroke="transparent" points="-4,4 -4,-292 655.18,-292 655.18,4 -4,4"/>
<text text-anchor="middle" x="325.59" y="-272.8" font-family="Helvetica,sans-Serif" font-size="14.00">My ALPS Blog</text>
</a>
</g>
<!-- Blog -->
<g id="node1" class="node">
<title>Blog</title>
<g id="a_node1"><a xlink:href="docs/semantic.Blog.html" xlink:title="&lt;TABLE&gt;" target="_parent">
<polygon fill="lightgray" stroke="black" stroke-width="2" points="349.68,-179 240.68,-179 240.68,-137 349.68,-137 349.68,-179"/>
<text text-anchor="start" x="279.18" y="-161.8" font-family="Times,serif" font-size="14.00">Blog</text>
<text text-anchor="start" x="247.18" y="-146.8" font-family="Times,serif" font-size="14.00">(BlogPosting)</text>
</a>
</g>
</g>
<!-- Blog&#45;&gt;Blog -->
<g id="edge3" class="edge">
<title>Blog&#45;&gt;Blog</title>
<g id="a_edge3"><a xlink:href="docs/unsafe.doPost.html" xlink:title="doPost, collection (unsafe)" target="_parent">
<path fill="none" stroke="black" d="M349.88,-166.21C360.31,-165.23 367.68,-162.49 367.68,-158 367.68,-155.12 364.66,-152.96 359.74,-151.53"/>
<polygon fill="black" stroke="black" points="360.33,-148.08 349.88,-149.79 359.12,-154.97 360.33,-148.08"/>
</a>
</g>
<g id="a_edge3&#45;label"><a xlink:href="docs/unsafe.doPost.html" xlink:title="doPost, collection (unsafe)" target="_parent">
<text text-anchor="start" x="367.68" y="-154.6" font-family="Times,serif" font-size="13.00">doPost, collection (unsafe)</text>
</a>
</g>
</g>
<!-- BlogPosting -->
<g id="node2" class="node">
<title>BlogPosting</title>
<g id="a_node2"><a xlink:href="docs/semantic.BlogPosting.html" xlink:title="&lt;TABLE&gt;" target="_parent">
<polygon fill="lightgray" stroke="black" stroke-width="2" points="162.18,-87 46.18,-87 46.18,0 162.18,0 162.18,-87"/>
<text text-anchor="start" x="61.18" y="-69.3" font-family="Times,serif" font-size="14.00">BlogPosting</text>
<text text-anchor="start" x="91.68" y="-54.3" font-family="Times,serif" font-size="14.00">(id)</text>
<text text-anchor="start" x="54.18" y="-39.3" font-family="Times,serif" font-size="14.00">(dateCreated)</text>
<text text-anchor="start" x="52.18" y="-24.3" font-family="Times,serif" font-size="14.00">(dateUpdated)</text>
<text text-anchor="start" x="57.68" y="-9.3" font-family="Times,serif" font-size="14.00">(articleBody)</text>
</a>
</g>
</g>
<!-- Blog&#45;&gt;BlogPosting -->
<g id="edge4" class="edge">
<title>Blog&#45;&gt;BlogPosting</title>
<g id="a_edge4"><a xlink:href="docs/safe.goBlogPosting.html" xlink:title="goBlogPosting, item (safe)" target="_parent">
<path fill="none" stroke="black" d="M240.58,-158C165.44,-158.06 36.05,-153.05 6.18,-119 -10.85,-99.58 10.04,-81.9 36.83,-68.64"/>
<polygon fill="black" stroke="black" points="38.52,-71.71 46.1,-64.31 35.56,-65.37 38.52,-71.71"/>
</a>
</g>
<g id="a_edge4&#45;label"><a xlink:href="docs/safe.goBlogPosting.html" xlink:title="goBlogPosting, item (safe)" target="_parent">
<text text-anchor="start" x="6.18" y="-108.6" font-family="Times,serif" font-size="13.00">goBlogPosting, item (safe)</text>
</a>
</g>
</g>
<!-- About -->
<g id="node3" class="node">
<title>About</title>
<g id="a_node3"><a xlink:href="docs/semantic.About.html" xlink:title="About" target="_parent">
<polygon fill="lightgray" stroke="black" stroke-width="2" points="476.68,-61.5 417.68,-61.5 417.68,-25.5 476.68,-25.5 476.68,-61.5"/>
<text text-anchor="middle" x="447.18" y="-39.8" font-family="Times,serif" font-size="14.00">About</text>
</a>
</g>
</g>
<!-- Blog&#45;&gt;About -->
<g id="edge2" class="edge">
<title>Blog&#45;&gt;About</title>
<g id="a_edge2"><a xlink:href="docs/safe.goAbout.html" xlink:title="goAbout (safe)" target="_parent">
<path fill="none" stroke="black" d="M336.16,-136.89C345.94,-131.52 356.16,-125.4 365.18,-119 386.21,-104.07 407.7,-84.35 423.4,-68.94"/>
<polygon fill="black" stroke="black" points="426,-71.3 430.62,-61.77 421.06,-66.34 426,-71.3"/>
</a>
</g>
<g id="a_edge2&#45;label"><a xlink:href="docs/safe.goAbout.html" xlink:title="goAbout (safe)" target="_parent">
<text text-anchor="start" x="382.18" y="-108.6" font-family="Times,serif" font-size="13.00">goAbout (safe)</text>
</a>
</g>
</g>
<!-- BlogPosting&#45;&gt;Blog -->
<g id="edge5" class="edge">
<title>BlogPosting&#45;&gt;Blog</title>
<g id="a_edge5"><a xlink:href="docs/safe.goBlog.html" xlink:title="goBlog, collection (safe)" target="_parent">
<path fill="none" stroke="black" d="M158.43,-87.09C178.76,-102.96 197.61,-117.53 200.18,-119 209.74,-124.48 220.24,-129.53 230.67,-134.04"/>
<polygon fill="black" stroke="black" points="229.62,-137.4 240.2,-138.03 232.33,-130.94 229.62,-137.4"/>
</a>
</g>
<g id="a_edge5&#45;label"><a xlink:href="docs/safe.goBlog.html" xlink:title="goBlog, collection (safe)" target="_parent">
<text text-anchor="start" x="200.18" y="-108.6" font-family="Times,serif" font-size="13.00">goBlog, collection (safe)</text>
</a>
</g>
</g>
<!-- About&#45;&gt;Blog -->
<g id="edge1" class="edge">
<title>About&#45;&gt;Blog</title>
<g id="a_edge1"><a xlink:href="docs/safe.goBlog.html" xlink:title="goBlog, collection (safe)" target="_parent">
<path fill="none" stroke="black" d="M466.62,-61.7C482.29,-77.65 499.54,-101.48 485.18,-119 469.45,-138.19 408.77,-147.88 360.16,-152.65"/>
<polygon fill="black" stroke="black" points="359.62,-149.18 349.99,-153.59 360.27,-156.15 359.62,-149.18"/>
</a>
</g>
<g id="a_edge1&#45;label"><a xlink:href="docs/safe.goBlog.html" xlink:title="goBlog, collection (safe)" target="_parent">
<text text-anchor="start" x="490.18" y="-108.6" font-family="Times,serif" font-size="13.00">goBlog, collection (safe)</text>
</a>
</g>
</g>
<!-- Index -->
<g id="node4" class="node">
<title>Index</title>
<g id="a_node4"><a xlink:href="docs/semantic.Index.html" xlink:title="Index" target="_parent">
<polygon fill="lightgray" stroke="black" stroke-width="2" points="323.18,-265 267.18,-265 267.18,-229 323.18,-229 323.18,-265"/>
<text text-anchor="middle" x="295.18" y="-243.3" font-family="Times,serif" font-size="14.00">Index</text>
</a>
</g>
</g>
<!-- Index&#45;&gt;Blog -->
<g id="edge6" class="edge">
<title>Index&#45;&gt;Blog</title>
<g id="a_edge6"><a xlink:href="docs/safe.goBlog.html" xlink:title="goBlog, collection (safe)" target="_parent">
<path fill="none" stroke="black" d="M295.18,-228.81C295.18,-217.56 295.18,-202.54 295.18,-189.32"/>
<polygon fill="black" stroke="black" points="298.68,-189.21 295.18,-179.21 291.68,-189.21 298.68,-189.21"/>
</a>
</g>
<g id="a_edge6&#45;label"><a xlink:href="docs/safe.goBlog.html" xlink:title="goBlog, collection (safe)" target="_parent">
<text text-anchor="start" x="295.18" y="-200.6" font-family="Times,serif" font-size="13.00">goBlog, collection (safe)</text>
</a>
</g>
</g>
</g>
</svg>
